<?xml version="1.0" encoding="UTF-8" standalone="no"?>
<!-- Created with Inkscape (http://www.inkscape.org/) -->

<svg
   version="1.1"
   id="svg1"
   width="880"
   height="880"
   viewBox="0 0 880 880"
   sodipodi:docname="guy-with-smartphone-publicdomainvectors.org.svg"
   inkscape:version="1.3.2 (091e20e, 2023-11-25, custom)"
   xmlns:inkscape="http://www.inkscape.org/namespaces/inkscape"
   xmlns:sodipodi="http://sodipodi.sourceforge.net/DTD/sodipodi-0.dtd"
   xmlns="http://www.w3.org/2000/svg"
   xmlns:svg="http://www.w3.org/2000/svg">
  <defs
     id="defs1">
    <clipPath
       clipPathUnits="userSpaceOnUse"
       id="clipPath4">
      <path
         d="M 0,660 H 660 V 0 H 0 Z"
         transform="translate(-329.30371,-255.6133)"
         id="path4" />
    </clipPath>
    <clipPath
       clipPathUnits="userSpaceOnUse"
       id="clipPath6">
      <path
         d="M 0,660 H 660 V 0 H 0 Z"
         transform="translate(-329.30181,-251.38671)"
         id="path6" />
    </clipPath>
    <clipPath
       clipPathUnits="userSpaceOnUse"
       id="clipPath8">
      <path
         d="M 0,660 H 660 V 0 H 0 Z"
         transform="translate(-329.30181,-529.49902)"
         id="path8" />
    </clipPath>
    <clipPath
       clipPathUnits="userSpaceOnUse"
       id="clipPath10">
      <path
         d="M 0,660 H 660 V 0 H 0 Z"
         transform="translate(-329.30181,-529.49902)"
         id="path10" />
    </clipPath>
    <clipPath
       clipPathUnits="userSpaceOnUse"
       id="clipPath12">
      <path
         d="M 0,660 H 660 V 0 H 0 Z"
         transform="translate(-248.68261,-593.10161)"
         id="path12" />
    </clipPath>
    <clipPath
       clipPathUnits="userSpaceOnUse"
       id="clipPath14">
      <path
         d="M 0,660 H 660 V 0 H 0 Z"
         transform="translate(-233.90041,-520.53611)"
         id="path14" />
    </clipPath>
    <clipPath
       clipPathUnits="userSpaceOnUse"
       id="clipPath16">
      <path
         d="M 0,660 H 660 V 0 H 0 Z"
         transform="translate(-329.30181,-600.03911)"
         id="path16" />
    </clipPath>
    <clipPath
       clipPathUnits="userSpaceOnUse"
       id="clipPath18">
      <path
         d="M 0,660 H 660 V 0 H 0 Z"
         transform="translate(-376.71291,-642.24712)"
         id="path18" />
    </clipPath>
    <clipPath
       clipPathUnits="userSpaceOnUse"
       id="clipPath20">
      <path
         d="M 0,660 H 660 V 0 H 0 Z"
         transform="translate(-404.35941,-492.46581)"
         id="path20" />
    </clipPath>
    <clipPath
       clipPathUnits="userSpaceOnUse"
       id="clipPath22">
      <path
         d="M 0,660 H 660 V 0 H 0 Z"
         transform="translate(-368.11521,-488.23541)"
         id="path22" />
    </clipPath>
    <clipPath
       clipPathUnits="userSpaceOnUse"
       id="clipPath24">
      <path
         d="M 0,660 H 660 V 0 H 0 Z"
         transform="translate(-254.24611,-492.46581)"
         id="path24" />
    </clipPath>
    <clipPath
       clipPathUnits="userSpaceOnUse"
       id="clipPath26">
      <path
         d="M 0,660 H 660 V 0 H 0 Z"
         transform="translate(-290.4883,-488.23541)"
         id="path26" />
    </clipPath>
    <clipPath
       clipPathUnits="userSpaceOnUse"
       id="clipPath28">
      <path
         d="M 0,660 H 660 V 0 H 0 Z"
         transform="translate(-368.33691,-427.16021)"
         id="path28" />
    </clipPath>
    <clipPath
       clipPathUnits="userSpaceOnUse"
       id="clipPath30">
      <path
         d="M 0,660 H 660 V 0 H 0 Z"
         transform="translate(-462.29101,-321.92681)"
         id="path30" />
    </clipPath>
    <clipPath
       clipPathUnits="userSpaceOnUse"
       id="clipPath32">
      <path
         d="M 0,660 H 660 V 0 H 0 Z"
         transform="translate(-73.740202,-282.001)"
         id="path32" />
    </clipPath>
    <clipPath
       clipPathUnits="userSpaceOnUse"
       id="clipPath34">
      <path
         d="M 0,660 H 660 V 0 H 0 Z"
         transform="translate(-103.4746,-289.93071)"
         id="path34" />
    </clipPath>
    <clipPath
       clipPathUnits="userSpaceOnUse"
       id="clipPath36">
      <path
         d="M 0,660 H 660 V 0 H 0 Z"
         transform="translate(-157.42971,-291.1123)"
         id="path36" />
    </clipPath>
    <clipPath
       clipPathUnits="userSpaceOnUse"
       id="clipPath38">
      <path
         d="M 0,660 H 660 V 0 H 0 Z"
         transform="translate(-138.8887,-289.93071)"
         id="path38" />
    </clipPath>
    <clipPath
       clipPathUnits="userSpaceOnUse"
       id="clipPath40">
      <path
         d="M 0,660 H 660 V 0 H 0 Z"
         transform="translate(-54.095701,-391.04001)"
         id="path40" />
    </clipPath>
    <clipPath
       clipPathUnits="userSpaceOnUse"
       id="clipPath42">
      <path
         d="M 0,660 H 660 V 0 H 0 Z"
         id="path42" />
    </clipPath>
    <clipPath
       clipPathUnits="userSpaceOnUse"
       id="clipPath44">
      <path
         d="M 0,660 H 660 V 0 H 0 Z"
         transform="translate(-135.5508,-376.67191)"
         id="path44" />
    </clipPath>
    <clipPath
       clipPathUnits="userSpaceOnUse"
       id="clipPath46">
      <path
         d="M 0,660 H 660 V 0 H 0 Z"
         transform="translate(-163.665,-382.45411)"
         id="path46" />
    </clipPath>
    <clipPath
       clipPathUnits="userSpaceOnUse"
       id="clipPath48">
      <path
         d="M 0,660 H 660 V 0 H 0 Z"
         transform="translate(-112.6602,-386.12011)"
         id="path48" />
    </clipPath>
    <clipPath
       clipPathUnits="userSpaceOnUse"
       id="clipPath50">
      <path
         d="M 0,660 H 660 V 0 H 0 Z"
         transform="translate(-87.5977,-390.10251)"
         id="path50" />
    </clipPath>
  </defs>
  <sodipodi:namedview
     id="namedview1"
     pagecolor="#ffffff"
     bordercolor="#000000"
     borderopacity="0.25"
     inkscape:showpageshadow="2"
     inkscape:pageopacity="0.0"
     inkscape:pagecheckerboard="0"
     inkscape:deskcolor="#d1d1d1"
     inkscape:zoom="0.67272727"
     inkscape:cx="439.25676"
     inkscape:cy="440"
     inkscape:window-width="1440"
     inkscape:window-height="830"
     inkscape:window-x="-6"
     inkscape:window-y="-6"
     inkscape:window-maximized="1"
     inkscape:current-layer="g1">
    <inkscape:page
       x="0"
       y="0"
       inkscape:label="1"
       id="page1"
       width="880"
       height="880"
       margin="133.972 178.82266 23.670666 60.580132"
       bleed="0" />
  </sodipodi:namedview>
  <g
     id="g1"
     inkscape:groupmode="layer"
     inkscape:label="1">
    <g
       id="group-MC0">
      <path
         id="path2"
         d="M 192.855,100.48 H 465.75 V 321.927 H 192.855 Z"
         style="fill:#2f2d2d;fill-opacity:1;fill-rule:evenodd;stroke:none"
         transform="matrix(1.3333333,0,0,-1.3333333,0,880)" />
      <path
         id="path3"
         d="M 0,0 C 69.421,0 126.04,21.058 126.04,46.881 126.04,72.699 69.421,93.759 0,93.759 -69.422,93.759 -126.04,72.699 -126.04,46.881 -126.04,21.058 -69.422,0 0,0"
         style="fill:#2f2d2d;fill-opacity:1;fill-rule:evenodd;stroke:none"
         transform="matrix(1.3333333,0,0,-1.3333333,439.0716,539.18227)"
         clip-path="url(#clipPath4)" />
      <path
         id="path5"
         d="m 0,0 c 36.465,0 66.204,29.741 66.204,66.203 0,36.463 -29.739,66.204 -66.204,66.204 -36.46,0 -66.202,-29.741 -66.202,-66.204 C -66.202,29.741 -36.46,0 0,0"
         style="fill:#e8e8e7;fill-opacity:1;fill-rule:evenodd;stroke:none"
         transform="matrix(1.3333333,0,0,-1.3333333,439.06907,544.81773)"
         clip-path="url(#clipPath6)" />
      <path
         id="path7"
         d="m 0,0 v 0 c 25.996,0 47.265,-21.271 47.265,-47.265 v -124.026 c 0,-25.995 -21.269,-47.264 -47.265,-47.264 -25.996,0 -47.264,21.269 -47.264,47.264 V -47.265 C -47.264,-21.271 -25.996,0 0,0"
         style="fill:#f28f62;fill-opacity:1;fill-rule:evenodd;stroke:none"
         transform="matrix(1.3333333,0,0,-1.3333333,439.06907,174.00133)"
         clip-path="url(#clipPath8)" />
      <path
         id="path9"
         d="m 0,0 v 0 c 25.996,0 47.265,-21.271 47.265,-47.265 v -116.281 c -9.487,-2.868 -19.53,-4.417 -29.919,-4.417 -24.359,0 -46.828,8.483 -64.61,22.638 v 98.06 C -47.264,-21.271 -25.996,0 0,0"
         style="fill:#e27548;fill-opacity:1;fill-rule:evenodd;stroke:none"
         transform="matrix(1.3333333,0,0,-1.3333333,439.06907,174.00133)"
         clip-path="url(#clipPath10)" />
      <path
         id="path11"
         d="m 0,0 c -21.574,0 -39.065,-20.323 -39.065,-45.39 0,-25.066 17.491,-45.387 39.065,-45.387 21.577,0 39.065,20.321 39.065,45.387 C 39.065,-20.323 21.577,0 0,0 m 161.24,0 c -21.577,0 -39.067,-20.323 -39.067,-45.39 0,-25.066 17.49,-45.387 39.067,-45.387 21.575,0 39.066,20.321 39.066,45.387 0,25.067 -17.491,45.39 -39.066,45.39"
         style="fill:#463d3b;fill-opacity:1;fill-rule:evenodd;stroke:none"
         transform="matrix(1.3333333,0,0,-1.3333333,331.5768,89.197867)"
         clip-path="url(#clipPath12)" />
      <path
         id="path13"
         d="m 0,0 h 190.805 c 12.561,0 22.838,-10.276 22.838,-22.838 v -0.002 c 0,-12.561 -10.277,-22.838 -22.838,-22.838 H 0 c -12.561,0 -22.837,10.277 -22.837,22.838 v 0.002 C -22.837,-10.276 -12.561,0 0,0"
         style="fill:#f28f62;fill-opacity:1;fill-rule:evenodd;stroke:none"
         transform="matrix(1.3333333,0,0,-1.3333333,311.8672,185.95187)"
         clip-path="url(#clipPath14)" />
      <path
         id="path15"
         d="m 0,0 v 0 c 57.241,0 104.074,-46.835 104.074,-104.074 v -10.408 c 0,-57.242 -46.833,-104.075 -104.074,-104.075 -57.239,0 -104.074,46.833 -104.074,104.075 v 10.408 C -104.074,-46.835 -57.239,0 0,0"
         style="fill:#f28f62;fill-opacity:1;fill-rule:evenodd;stroke:none"
         transform="matrix(1.3333333,0,0,-1.3333333,439.06907,79.947867)"
         clip-path="url(#clipPath16)" />
      <path
         id="path17"
         d="m 0,0 h -94.821 c -34.82,0 -63.312,-28.491 -63.312,-63.311 v -0.002 c 0,-34.821 28.492,-63.312 63.312,-63.312 H 0 c 34.821,0 63.31,28.491 63.31,63.312 v 0.002 C 63.31,-28.491 34.821,0 0,0"
         style="fill:#463d3b;fill-opacity:1;fill-rule:evenodd;stroke:none"
         transform="matrix(1.3333333,0,0,-1.3333333,502.28387,23.670533)"
         clip-path="url(#clipPath18)" />
      <path
         id="path19"
         d="M 0,0 -37.291,6.432 C -45.77,7.896 -53.88,2.172 -55.342,-6.307 l -0.243,-1.402 37.291,-6.433 c 8.479,-1.462 16.589,4.259 18.051,12.74 z"
         style="fill:#463d3b;fill-opacity:1;fill-rule:evenodd;stroke:none"
         transform="matrix(1.3333333,0,0,-1.3333333,539.14587,223.37893)"
         clip-path="url(#clipPath20)" />
      <path
         id="path21"
         d="m 0,0 c -6.676,1.151 -13.022,-3.328 -14.174,-10.004 -1.152,-6.678 3.325,-13.024 10.003,-14.176 6.678,-1.152 13.025,3.327 14.175,10.005 C 11.155,-7.499 6.678,-1.152 0,0"
         style="fill:#463d3b;fill-opacity:1;fill-rule:evenodd;stroke:none"
         transform="matrix(1.3333333,0,0,-1.3333333,490.82027,229.01947)"
         clip-path="url(#clipPath22)" />
      <path
         id="path23"
         d="M 0,0 37.289,6.432 C 45.77,7.896 53.878,2.172 55.343,-6.307 l 0.24,-1.402 -37.288,-6.433 C 9.814,-15.604 1.706,-9.883 0.243,-1.402 Z"
         style="fill:#463d3b;fill-opacity:1;fill-rule:evenodd;stroke:none"
         transform="matrix(1.3333333,0,0,-1.3333333,338.9948,223.37893)"
         clip-path="url(#clipPath24)" />
      <path
         id="path25"
         d="M 0,0 C 6.679,1.151 13.024,-3.328 14.177,-10.004 15.328,-16.682 10.849,-23.028 4.171,-24.18 -2.505,-25.332 -8.85,-20.853 -10.001,-14.175 -11.153,-7.499 -6.676,-1.152 0,0"
         style="fill:#463d3b;fill-opacity:1;fill-rule:evenodd;stroke:none"
         transform="matrix(1.3333333,0,0,-1.3333333,387.31773,229.01947)"
         clip-path="url(#clipPath26)" />
      <path
         id="path27"
         d="m 0,0 c -5.353,-16.444 -20.805,-28.332 -39.035,-28.332 -18.231,0 -33.681,11.888 -39.031,28.332 z"
         style="fill:#ffffff;fill-opacity:1;fill-rule:evenodd;stroke:none"
         transform="matrix(1.3333333,0,0,-1.3333333,491.11587,310.45307)"
         clip-path="url(#clipPath28)" />
      <path
         id="path29"
         d="m 0,0 h -46.502 l 17.094,-221.447 h 93 L 50.089,-46.502 C 48.115,-20.926 25.574,0 0,0"
         style="fill:#2f2d2d;fill-opacity:1;fill-rule:evenodd;stroke:none"
         transform="matrix(1.3333333,0,0,-1.3333333,616.388,450.76427)"
         clip-path="url(#clipPath30)" />
      <path
         id="path31"
         d="m 0,0 v 0 c 0,35.41 28.973,59.974 64.383,54.584 l 75.825,-11.54 c 16.38,-2.493 29.781,-17.935 29.781,-34.315 V -90.255 L 64.383,-74.182 C 28.973,-68.793 0,-35.41 0,0"
         style="fill:#2f2d2d;fill-opacity:1;fill-rule:evenodd;stroke:none"
         transform="matrix(1.3333333,0,0,-1.3333333,98.320267,503.99867)"
         clip-path="url(#clipPath32)" />
      <path
         id="path33"
         d="m 0,0 c 13.178,0 23.924,8.961 23.924,19.946 0,10.987 -10.746,19.95 -23.924,19.95 -13.176,0 -23.923,-8.963 -23.923,-19.95 C -23.923,8.961 -13.176,0 0,0"
         style="fill:#f28f62;fill-opacity:1;fill-rule:evenodd;stroke:none"
         transform="matrix(1.3333333,0,0,-1.3333333,137.96613,493.42573)"
         clip-path="url(#clipPath34)" />
      <path
         id="path35"
         d="M 0,0 C -6.425,3.891 -8.479,12.251 -4.588,18.673 -0.7,25.097 7.66,27.149 14.084,23.262 L 22.52,18.149 C 28.943,14.261 30.997,5.9 27.106,-0.523 23.218,-6.946 14.857,-9 8.436,-5.109 Z"
         style="fill:#f28f62;fill-opacity:1;fill-rule:evenodd;stroke:none"
         transform="matrix(1.3333333,0,0,-1.3333333,209.90627,491.85027)"
         clip-path="url(#clipPath36)" />
      <path
         id="path37"
         d="m 0,0 c 13.178,0 23.924,8.961 23.924,19.946 0,10.987 -10.746,19.95 -23.924,19.95 -13.176,0 -23.923,-8.963 -23.923,-19.95 C -23.923,8.961 -13.176,0 0,0"
         style="fill:#f28f62;fill-opacity:1;fill-rule:evenodd;stroke:none"
         transform="matrix(1.3333333,0,0,-1.3333333,185.18493,493.42573)"
         clip-path="url(#clipPath38)" />
      <path
         id="path39"
         d="m 0,0 h 139.947 c 4.764,0 8.66,-3.896 8.66,-8.661 v -64.418 c 0,-4.766 -3.896,-8.661 -8.66,-8.661 L 0,-81.74 c -4.764,0 -8.661,3.895 -8.661,8.661 V -8.661 C -8.661,-3.896 -4.764,0 0,0"
         style="fill:#e8e8e7;fill-opacity:1;fill-rule:evenodd;stroke:none"
         transform="matrix(1.3333333,0,0,-1.3333333,72.1276,358.61333)"
         clip-path="url(#clipPath40)" />
      <path
         id="path41"
         d="m 56.565,312.442 h 135.007 v 75.455 H 56.565 Z"
         style="fill:#2f2d2d;fill-opacity:1;fill-rule:evenodd;stroke:none"
         transform="matrix(1.3333333,0,0,-1.3333333,0,880)"
         clip-path="url(#clipPath42)" />
      <path
         id="path43"
         d="m 0,0 c -1.002,-7.455 -7.858,-12.686 -15.311,-11.685 -7.456,1.002 -12.686,7.857 -11.685,15.312 l 2.857,20.723 c 1.001,7.455 7.856,12.685 15.311,11.683 7.455,-1.001 12.685,-7.857 11.684,-15.31 z"
         style="fill:#f28f62;fill-opacity:1;fill-rule:evenodd;stroke:none"
         transform="matrix(1.3333333,0,0,-1.3333333,180.7344,377.7708)"
         clip-path="url(#clipPath44)" />
      <path
         id="path45"
         d="m 0,0 c -1.001,-7.453 -7.857,-12.686 -15.311,-11.685 -7.455,1.001 -12.685,7.859 -11.684,15.314 l 1.287,9.348 c 1.002,7.456 7.858,12.686 15.313,11.684 C -2.941,23.658 2.291,16.804 1.29,9.351 Z"
         style="fill:#f28f62;fill-opacity:1;fill-rule:evenodd;stroke:none"
         transform="matrix(1.3333333,0,0,-1.3333333,218.22,370.0612)"
         clip-path="url(#clipPath46)" />
      <path
         id="path47"
         d="m 0,0 c 1.504,-7.364 -3.251,-14.557 -10.617,-16.059 -7.367,-1.501 -14.557,3.253 -16.059,10.62 l -1.927,9.346 c -1.502,7.367 3.252,14.557 10.619,16.061 7.365,1.502 14.554,-3.251 16.058,-10.617 z"
         style="fill:#f28f62;fill-opacity:1;fill-rule:evenodd;stroke:none"
         transform="matrix(1.3333333,0,0,-1.3333333,150.2136,365.1732)"
         clip-path="url(#clipPath48)" />
      <path
         id="path49"
         d="m 0,0 c 1.504,-7.366 -3.251,-14.556 -10.617,-16.058 -7.365,-1.501 -14.556,3.25 -16.059,10.618 l -0.57,2.764 c -1.502,7.367 3.252,14.556 10.617,16.058 7.367,1.502 14.557,-3.25 16.059,-10.615 z"
         style="fill:#f28f62;fill-opacity:1;fill-rule:evenodd;stroke:none"
         transform="matrix(1.3333333,0,0,-1.3333333,116.79693,359.86333)"
         clip-path="url(#clipPath50)" />
    </g>
  </g>
</svg>
